<svg width="1426" height="677" viewBox="0 0 1426 677" fill="none" xmlns="http://www.w3.org/2000/svg">
<path d="M317 258.947V227.048L458.239 4.37833H481.465V53.7909H465.772L359.058 222.044V224.546H549.26V258.947H317ZM468.283 324.622V4.37833H505.319V324.622H468.283Z" fill="#7B7070"/>
<path d="M712.902 329C689.257 329 669.118 322.589 652.483 309.767C635.848 296.84 623.136 278.128 614.348 253.63C605.56 229.028 601.166 199.318 601.166 164.5C601.166 129.89 605.56 100.337 614.348 75.8389C623.241 51.2369 636.005 32.4726 652.64 19.5461C669.379 6.51536 689.467 0 712.902 0C736.337 0 756.372 6.51536 773.007 19.5461C789.747 32.4726 802.511 51.2369 811.299 75.8389C820.192 100.337 824.638 129.89 824.638 164.5C824.638 199.318 820.244 229.028 811.456 253.63C802.667 278.128 789.956 296.84 773.321 309.767C756.686 322.589 736.546 329 712.902 329ZM712.902 294.599C736.337 294.599 754.541 283.34 767.515 260.823C780.488 238.306 786.974 206.198 786.974 164.5C786.974 136.771 783.992 113.159 778.029 93.6649C772.17 74.1709 763.696 59.3159 752.606 49.0998C741.621 38.8837 728.386 33.7757 712.902 33.7757C689.676 33.7757 671.524 45.1906 658.446 68.0204C645.369 90.746 638.83 122.906 638.83 164.5C638.83 192.229 641.759 215.789 647.618 235.179C653.477 254.568 661.899 269.319 672.884 279.431C683.974 289.543 697.313 294.599 712.902 294.599Z" fill="#7B7070"/>
<path d="M876.74 258.947V227.048L1017.98 4.37833H1041.21V53.7909H1025.51L918.798 222.044V224.546H1109V258.947H876.74ZM1028.02 324.622V4.37833H1065.06V324.622H1028.02Z" fill="#7B7070"/>
<path d="M0 629.279V468.535H54.2678C66.8675 468.535 77.1669 470.811 85.1659 475.363C93.2172 479.863 99.1773 485.959 103.046 493.651C106.915 501.343 108.849 509.924 108.849 519.395C108.849 528.866 106.915 537.474 103.046 545.218C99.2296 552.962 93.3218 559.137 85.3228 563.741C77.3238 568.294 67.0767 570.57 54.5815 570.57H15.6843V553.302H53.9541C62.5805 553.302 69.5077 551.811 74.7358 548.828C79.964 545.846 83.7543 541.817 86.107 536.741C88.5119 531.613 89.7144 525.831 89.7144 519.395C89.7144 512.959 88.5119 507.203 86.107 502.128C83.7543 497.052 79.9378 493.076 74.6574 490.198C69.377 487.267 62.3714 485.802 53.6404 485.802H19.4486V629.279H0Z" fill="#7B7070"/>
<path d="M173.116 632.105C165.483 632.105 158.556 630.666 152.334 627.788C146.113 624.858 141.172 620.645 137.512 615.151C133.853 609.605 132.023 602.907 132.023 595.058C132.023 588.151 133.382 582.552 136.101 578.262C138.819 573.919 142.453 570.517 147.001 568.058C151.55 565.599 156.569 563.767 162.058 562.564C167.6 561.308 173.168 560.314 178.762 559.581C186.082 558.64 192.015 557.933 196.564 557.462C201.165 556.939 204.511 556.076 206.602 554.872C208.745 553.669 209.817 551.576 209.817 548.593V547.965C209.817 540.221 207.7 534.203 203.465 529.913C199.283 525.622 192.93 523.477 184.409 523.477C175.573 523.477 168.646 525.413 163.627 529.285C158.608 533.157 155.079 537.291 153.04 541.686L135.473 535.407C138.61 528.081 142.793 522.378 148.021 518.297C153.301 514.163 159.052 511.285 165.274 509.663C171.547 507.988 177.717 507.151 183.781 507.151C187.65 507.151 192.094 507.622 197.113 508.564C202.184 509.453 207.072 511.311 211.778 514.137C216.535 516.962 220.482 521.227 223.619 526.93C226.756 532.634 228.325 540.273 228.325 549.849V629.279H209.817V612.953H208.876C207.621 615.57 205.53 618.369 202.602 621.352C199.675 624.334 195.78 626.872 190.918 628.965C186.055 631.058 180.121 632.105 173.116 632.105ZM175.939 615.465C183.258 615.465 189.428 614.026 194.447 611.148C199.518 608.27 203.334 604.555 205.896 600.003C208.51 595.451 209.817 590.663 209.817 585.64V568.686C209.033 569.628 207.308 570.491 204.641 571.276C202.027 572.009 198.995 572.663 195.544 573.238C192.146 573.762 188.826 574.233 185.585 574.651C182.396 575.017 179.808 575.331 177.821 575.593C173.011 576.221 168.515 577.241 164.333 578.654C160.202 580.015 156.856 582.081 154.295 584.855C151.785 587.576 150.53 591.291 150.53 596C150.53 602.436 152.909 607.302 157.667 610.599C162.477 613.843 168.567 615.465 175.939 615.465Z" fill="#7B7070"/>
<path d="M310.726 677C301.786 677 294.101 675.849 287.67 673.547C281.24 671.297 275.881 668.314 271.594 664.599C267.359 660.936 263.987 657.012 261.477 652.826L276.221 642.465C277.894 644.663 280.011 647.174 282.573 650C285.135 652.878 288.637 655.363 293.081 657.456C297.578 659.602 303.459 660.674 310.726 660.674C320.451 660.674 328.476 658.32 334.802 653.61C341.128 648.901 344.291 641.523 344.291 631.477V606.988H342.722C341.363 609.186 339.429 611.907 336.919 615.151C334.462 618.343 330.907 621.195 326.254 623.706C321.653 626.166 315.432 627.395 307.589 627.395C297.865 627.395 289.134 625.093 281.397 620.488C273.711 615.884 267.62 609.186 263.124 600.395C258.68 591.605 256.458 580.93 256.458 568.372C256.458 556.023 258.628 545.27 262.967 536.113C267.307 526.904 273.345 519.788 281.083 514.765C288.82 509.689 297.761 507.151 307.903 507.151C315.745 507.151 321.967 508.459 326.567 511.076C331.22 513.64 334.776 516.57 337.233 519.866C339.742 523.11 341.677 525.779 343.036 527.872H344.918V508.721H362.798V632.733C362.798 643.093 360.446 651.517 355.74 658.006C351.087 664.547 344.814 669.334 336.919 672.369C329.077 675.456 320.346 677 310.726 677ZM310.099 610.756C317.523 610.756 323.797 609.055 328.92 605.654C334.044 602.253 337.939 597.36 340.605 590.977C343.271 584.593 344.604 576.953 344.604 568.058C344.604 559.372 343.297 551.706 340.683 545.061C338.069 538.416 334.2 533.209 329.077 529.442C323.953 525.674 317.627 523.791 310.099 523.791C302.257 523.791 295.722 525.779 290.493 529.756C285.318 533.733 281.423 539.07 278.809 545.767C276.247 552.465 274.966 559.895 274.966 568.058C274.966 576.43 276.273 583.834 278.887 590.27C281.553 596.654 285.474 601.677 290.65 605.34C295.878 608.951 302.361 610.756 310.099 610.756Z" fill="#7B7070"/>
<path d="M447.18 631.791C435.574 631.791 425.562 629.227 417.144 624.099C408.779 618.919 402.323 611.698 397.774 602.436C393.278 593.122 391.03 582.291 391.03 569.942C391.03 557.593 393.278 546.709 397.774 537.291C402.323 527.82 408.649 520.442 416.752 515.157C424.908 509.82 434.423 507.151 445.298 507.151C451.572 507.151 457.767 508.198 463.884 510.291C470.001 512.384 475.569 515.785 480.588 520.494C485.607 525.151 489.606 531.326 492.586 539.017C495.566 546.709 497.056 556.18 497.056 567.43V575.279H404.205V559.267H478.235C478.235 552.465 476.876 546.395 474.157 541.058C471.491 535.721 467.674 531.509 462.707 528.422C457.793 525.334 451.99 523.791 445.298 523.791C437.926 523.791 431.548 525.622 426.163 529.285C420.83 532.895 416.726 537.605 413.851 543.413C410.975 549.221 409.538 555.448 409.538 562.093V572.767C409.538 581.872 411.106 589.59 414.243 595.922C417.432 602.201 421.85 606.988 427.496 610.285C433.142 613.529 439.704 615.151 447.18 615.151C452.042 615.151 456.434 614.471 460.355 613.11C464.328 611.698 467.753 609.605 470.628 606.831C473.503 604.006 475.725 600.5 477.294 596.314L495.174 601.337C493.292 607.407 490.129 612.744 485.685 617.349C481.241 621.901 475.752 625.459 469.216 628.023C462.681 630.535 455.336 631.791 447.18 631.791Z" fill="#7B7070"/>
<path d="M605.827 556.756V629.279H587.319V508.721H605.2V527.558H606.768C609.591 521.436 613.878 516.517 619.629 512.802C625.38 509.035 632.804 507.151 641.901 507.151C650.057 507.151 657.193 508.826 663.31 512.174C669.427 515.471 674.184 520.494 677.583 527.244C680.981 533.942 682.68 542.419 682.68 552.674V629.279H664.173V553.93C664.173 544.459 661.715 537.081 656.801 531.797C651.887 526.459 645.142 523.791 636.568 523.791C630.66 523.791 625.38 525.073 620.727 527.637C616.126 530.201 612.493 533.942 609.826 538.86C607.16 543.779 605.827 549.744 605.827 556.756Z" fill="#7B7070"/>
<path d="M765.435 631.791C754.56 631.791 745.019 629.201 736.811 624.02C728.655 618.84 722.277 611.593 717.676 602.279C713.127 592.965 710.853 582.081 710.853 569.628C710.853 557.07 713.127 546.108 717.676 536.741C722.277 527.375 728.655 520.102 736.811 514.922C745.019 509.741 754.56 507.151 765.435 507.151C776.309 507.151 785.824 509.741 793.98 514.922C802.188 520.102 808.567 527.375 813.115 536.741C817.716 546.108 820.016 557.07 820.016 569.628C820.016 582.081 817.716 592.965 813.115 602.279C808.567 611.593 802.188 618.84 793.98 624.02C785.824 629.201 776.309 631.791 765.435 631.791ZM765.435 615.151C773.695 615.151 780.492 613.032 785.824 608.794C791.157 604.555 795.104 598.983 797.666 592.076C800.228 585.169 801.509 577.686 801.509 569.628C801.509 561.57 800.228 554.061 797.666 547.102C795.104 540.142 791.157 534.517 785.824 530.227C780.492 525.936 773.695 523.791 765.435 523.791C757.174 523.791 750.378 525.936 745.045 530.227C739.712 534.517 735.765 540.142 733.203 547.102C730.642 554.061 729.361 561.57 729.361 569.628C729.361 577.686 730.642 585.169 733.203 592.076C735.765 598.983 739.712 604.555 745.045 608.794C750.378 613.032 757.174 615.151 765.435 615.151Z" fill="#7B7070"/>
<path d="M900.653 508.721V524.419H838.23V508.721H900.653ZM856.423 479.837H874.931V594.744C874.931 599.977 875.689 603.901 877.205 606.517C878.774 609.081 880.76 610.808 883.165 611.698C885.622 612.535 888.21 612.953 890.929 612.953C892.968 612.953 894.641 612.849 895.948 612.64C897.255 612.378 898.301 612.169 899.085 612.012L902.849 628.651C901.594 629.122 899.843 629.593 897.595 630.064C895.347 630.587 892.497 630.849 889.047 630.849C883.819 630.849 878.695 629.724 873.676 627.474C868.709 625.224 864.579 621.797 861.286 617.192C858.044 612.587 856.423 606.779 856.423 599.767V479.837Z" fill="#7B7070"/>
<path d="M1044.24 508.721V524.419H979.31V508.721H1044.24ZM998.759 629.279V492.081C998.759 485.174 1000.38 479.419 1003.62 474.814C1006.86 470.209 1011.07 466.756 1016.25 464.453C1021.42 462.151 1026.89 461 1032.64 461C1037.19 461 1040.9 461.366 1043.77 462.099C1046.65 462.831 1048.79 463.512 1050.2 464.14L1044.87 480.151C1043.93 479.837 1042.62 479.445 1040.95 478.974C1039.33 478.503 1037.19 478.267 1034.52 478.267C1028.4 478.267 1023.98 479.811 1021.27 482.898C1018.6 485.985 1017.27 490.512 1017.27 496.477V629.279H998.759Z" fill="#7B7070"/>
<path d="M1114.16 631.791C1103.28 631.791 1093.74 629.201 1085.53 624.02C1077.38 618.84 1071 611.593 1066.4 602.279C1061.85 592.965 1059.57 582.081 1059.57 569.628C1059.57 557.07 1061.85 546.108 1066.4 536.741C1071 527.375 1077.38 520.102 1085.53 514.922C1093.74 509.741 1103.28 507.151 1114.16 507.151C1125.03 507.151 1134.55 509.741 1142.7 514.922C1150.91 520.102 1157.29 527.375 1161.84 536.741C1166.44 546.108 1168.74 557.07 1168.74 569.628C1168.74 582.081 1166.44 592.965 1161.84 602.279C1157.29 611.593 1150.91 618.84 1142.7 624.02C1134.55 629.201 1125.03 631.791 1114.16 631.791ZM1114.16 615.151C1122.42 615.151 1129.21 613.032 1134.55 608.794C1139.88 604.555 1143.83 598.983 1146.39 592.076C1148.95 585.169 1150.23 577.686 1150.23 569.628C1150.23 561.57 1148.95 554.061 1146.39 547.102C1143.83 540.142 1139.88 534.517 1134.55 530.227C1129.21 525.936 1122.42 523.791 1114.16 523.791C1105.9 523.791 1099.1 525.936 1093.77 530.227C1088.43 534.517 1084.49 540.142 1081.92 547.102C1079.36 554.061 1078.08 561.57 1078.08 569.628C1078.08 577.686 1079.36 585.169 1081.92 592.076C1084.49 598.983 1088.43 604.555 1093.77 608.794C1099.1 613.032 1105.9 615.151 1114.16 615.151Z" fill="#7B7070"/>
<path d="M1272.9 579.988V508.721H1291.41V629.279H1272.9V608.872H1271.65C1268.82 614.994 1264.43 620.201 1258.47 624.491C1252.51 628.73 1244.98 630.849 1235.89 630.849C1228.36 630.849 1221.67 629.201 1215.81 625.904C1209.95 622.555 1205.35 617.532 1202.01 610.834C1198.66 604.084 1196.99 595.581 1196.99 585.326V508.721H1215.5V584.07C1215.5 592.86 1217.95 599.872 1222.87 605.105C1227.83 610.337 1234.16 612.953 1241.85 612.953C1246.45 612.953 1251.13 611.776 1255.88 609.422C1260.69 607.067 1264.72 603.456 1267.96 598.59C1271.25 593.724 1272.9 587.523 1272.9 579.988Z" fill="#7B7070"/>
<path d="M1370.79 631.791C1360.75 631.791 1351.89 629.253 1344.21 624.177C1336.52 619.049 1330.51 611.828 1326.17 602.515C1321.83 593.148 1319.66 582.081 1319.66 569.314C1319.66 556.651 1321.83 545.663 1326.17 536.349C1330.51 527.035 1336.55 519.84 1344.28 514.765C1352.02 509.689 1360.96 507.151 1371.1 507.151C1378.95 507.151 1385.14 508.459 1389.69 511.076C1394.29 513.64 1397.79 516.57 1400.2 519.866C1402.66 523.11 1404.56 525.779 1405.92 527.872H1407.49V468.535H1426V629.279H1408.12V610.756H1405.92C1404.56 612.953 1402.63 615.727 1400.12 619.076C1397.61 622.372 1394.03 625.328 1389.38 627.945C1384.72 630.509 1378.53 631.791 1370.79 631.791ZM1373.3 615.151C1380.72 615.151 1387 613.215 1392.12 609.343C1397.25 605.419 1401.14 600.003 1403.81 593.096C1406.47 586.137 1407.81 578.105 1407.81 569C1407.81 560 1406.5 552.125 1403.89 545.375C1401.27 538.573 1397.4 533.288 1392.28 529.52C1387.16 525.701 1380.83 523.791 1373.3 523.791C1365.46 523.791 1358.92 525.805 1353.7 529.834C1348.52 533.811 1344.62 539.227 1342.01 546.081C1339.45 552.884 1338.17 560.523 1338.17 569C1338.17 577.581 1339.47 585.378 1342.09 592.39C1344.76 599.349 1348.68 604.895 1353.85 609.029C1359.08 613.11 1365.56 615.151 1373.3 615.151Z" fill="#7B7070"/>
</svg>
